<?xml version="1.0" encoding="utf-8"?>
<!DOCTYPE svg PUBLIC "-//W3C//DTD SVG 1.0//EN" "http://www.w3.org/TR/2001/REC-SVG-20010904/DTD/svg10.dtd">
<svg version="1.0" xmlns="http://www.w3.org/2000/svg" width="580px" height="430px" viewBox="0 0 580 430" preserveAspectRatio="xMidYMid meet">
 <g fill="#000000">
  <path d="M286 344.3 c-39 -2.1 -69.1 -15.7 -95 -43 -35.3 -37.1 -46 -88.8 -28.9 -139.6 5.4 -16.2 17.9 -35.7 31.3 -48.9 20.3 -20.2 42.3 -32 70 -37.8 13.8 -2.8 38.3 -2.8 52.2 0 35.3 7.2 65.1 26.7 85.6 56 5.1 7.3 10.7 17 12.4 21.5 0.7 1.7 2.1 5.5 3.3 8.5 1.2 3 3.3 9.8 4.8 15 2.6 9.1 2.7 10.6 2.7 32.5 0.1 21.1 -0.1 23.7 -2.2 31 -5.6 19.2 -10.3 30 -18.7 43 -14.8 22.7 -34.9 39.7 -60.1 50.8 -16.6 7.2 -40.7 11.9 -57.4 11z m17 -6.3 c8.4 -1 21.7 -4 27.5 -6.2 51.8 -19.1 86.7 -65.4 89.2 -118.4 2.3 -48.4 -26.7 -97.3 -71.3 -120.1 -27.9 -14.2 -53.4 -18.3 -80.6 -12.8 -15.4 3.1 -22.6 5.6 -35.5 12.1 -22.2 11.2 -41.3 28.9 -53.8 49.9 -14.1 23.5 -21.1 52.3 -18.5 76 3.5 33.3 18 62.6 41.7 84.5 28.9 26.6 65.6 39.3 101.3 35z"/>
 </g>
 <g fill="#00377f">
  <path d="M218 219 l0 -44 3.4 0 c1.9 0 3.6 0.6 3.9 1.2 1.2 3.4 14.1 83.8 13.4 84.4 -0.4 0.4 -3.6 0.3 -7.2 -0.2 -6 -0.9 -6.5 -0.9 -6.5 0.8 0 1.4 -0.8 1.8 -3.5 1.8 l-3.5 0 0 -44z"/>
  <path d="M264 259 c0 -2.2 0.4 -4 0.9 -4 0.5 0 1.1 -3 1.4 -6.7 0.6 -8.2 1.6 -15.7 6.5 -46.3 l3.8 -23.5 3.7 -0.3 3.7 -0.3 0 32 c0 27.9 -0.2 32.1 -1.5 32.1 -1.2 0 -1.5 1.5 -1.5 7.3 0 7.7 -0.9 9.7 -4.5 9.7 -1.1 0 -2.8 0.9 -3.8 2 -1.1 1.3 -2.9 2 -5.2 2 -3.4 0 -3.5 -0.1 -3.5 -4z"/>
  <path d="M304 247.5 l0 -15.5 3.5 0 c1.9 0 3.5 0.5 3.5 1 0 0.6 0.5 1 1 1 0.6 0 1 -0.7 1 -1.5 0 -1 1.1 -1.5 3.5 -1.5 l3.5 0 0 7.3 c0 3.9 0.7 9.4 1.5 12.1 0.8 2.7 1.5 6.2 1.5 7.8 0 2.5 -0.3 2.8 -3.5 2.8 -2.8 0 -3.5 -0.4 -3.5 -1.9 0 -1.2 -0.9 -2 -2.5 -2.3 -2.3 -0.5 -2.5 -0.2 -2.5 2.8 0 3.2 -0.2 3.4 -3.5 3.4 l-3.5 0 0 -15.5z"/>
  <path d="M343.5 251 c-1.1 -2.1 -1.5 -6 -1.5 -14 l0 -11 -2.5 0 c-2.2 0 -2.5 -0.4 -2.5 -3.5 0 -2.8 0.4 -3.5 2 -3.5 1.6 0 2 -0.7 2 -3 0 -2.9 0.2 -3 4.3 -3 3.5 0 4.8 0.6 7.9 3.8 5.9 6 8 11.8 8.1 23.1 0.2 13.2 -0.4 14.1 -9.3 14.1 -6.7 0 -7 -0.1 -8.5 -3z"/>
  <path d="M156.6 218.8 c-0.8 -3 -0.8 -16.6 0 -19.5 0.4 -1.3 1.3 -2.3 2 -2.3 1.1 0 1.4 2.4 1.4 12 0 9.6 -0.3 12 -1.4 12 -0.7 0 -1.6 -1 -2 -2.2z"/>
  <path d="M247.5 218.8 c-0.6 -2.8 -3.3 -24.4 -3.9 -31.3 -0.2 -2.7 -0.7 -6.2 -1.1 -7.7 -0.4 -1.5 -0.4 -3.9 -0.1 -5.3 0.5 -2.1 1.2 -2.5 4.1 -2.5 2 0 3.7 -0.6 4.3 -1.6 0.6 -1.1 2.1 -1.4 5.3 -1.2 4.2 0.3 4.4 0.5 4.7 3.6 0.2 1.8 -0.1 3.9 -0.6 4.5 -0.6 0.7 -1.3 4.6 -1.7 8.7 -0.3 4.1 -1.3 13.7 -2.2 21.3 l-1.7 13.7 -3.3 0 c-2.6 0 -3.4 -0.5 -3.8 -2.2z"/>
  <path d="M304 178 l0 -22 3.5 0 3.5 0 0 6.5 c0 3.7 0.4 6.5 1 6.5 0.6 0 1 -0.9 1 -2 0 -1.6 0.7 -2 3.4 -2 l3.3 0 0.6 6.8 c1.2 12.5 1.3 12.2 -3.7 12.2 -2.6 0 -4.6 -0.5 -4.9 -1.2 -0.3 -0.7 -0.6 2.9 -0.6 8 l-0.1 9.2 -3.5 0 -3.5 0 0 -22z"/>
  <path d="M354 186.9 c-1.4 -1.8 -2.6 -3.6 -2.8 -4 -0.2 -0.5 -1 -0.9 -1.8 -0.9 -0.8 0 -1.4 -0.6 -1.4 -1.3 0 -0.7 -0.9 -1.8 -2.1 -2.5 -3.9 -2.5 -6.1 -12.1 -4.3 -18.8 1.6 -5.8 16.2 -5.8 17.8 0 0.3 1.1 0.6 4.2 0.6 6.8 0 2.6 0.5 5 1.1 5.4 0.8 0.4 0.9 2.5 0.5 6 -0.4 3.4 -0.2 5.4 0.4 5.4 0.5 0 1 1.6 1 3.5 0 3.3 -0.2 3.5 -3.2 3.5 -2.5 0 -3.9 -0.8 -5.8 -3.1z"/>
 </g>
 <g fill="#003e93">
  <path d="M276.8 341.3 c-2.9 -0.7 -2 -3 1.3 -3.7 6.2 -1.2 7.9 -0.8 7.9 1.9 0 2.2 -0.4 2.5 -3.7 2.4 -2.1 -0.1 -4.6 -0.3 -5.5 -0.6z"/>
  <path d="M291 339.5 c0 -2.7 0 -2.7 6 -2.3 3.3 0.2 6 0.2 6 -0.2 0 -0.6 14.2 -3 18.3 -3 2 0 2.7 0.5 2.7 2 0 1.1 -0.1 2 -0.2 2 -0.2 0 -3.9 0.7 -8.3 1.5 -4.3 0.9 -11.6 1.8 -16.2 2.2 l-8.3 0.6 0 -2.8z"/>
  <path d="M262 339.4 c-12 -2.5 -20 -5.6 -20 -7.6 0 -1.3 0.8 -1.8 2.5 -1.8 4.3 0 14.5 3.4 14.5 4.8 0 0.7 0.5 1 1 0.7 0.6 -0.4 4 -0.3 7.5 0 6 0.7 6.5 0.9 6.5 3.1 0 2.9 -2 3 -12 0.8z"/>
  <path d="M326 334 c0 -2.8 0.2 -3 4 -3 2.9 0 4 -0.4 4 -1.5 0 -1.1 1.2 -1.5 4.6 -1.5 3.7 0 4.5 0.3 4.2 1.7 -0.3 1.6 -7.6 5 -14.1 6.7 -2.5 0.6 -2.7 0.4 -2.7 -2.4z"/>
  <path d="M231.8 328.9 c-4.3 -2.1 -7.8 -4.4 -7.8 -4.9 0 -0.6 2 -1 4.5 -1 2.5 0 4.5 0.5 4.5 1 0 0.6 0.9 1 2 1 1.1 0 2 0.5 2 1 0 0.6 0.9 1 2 1 1.6 0 2 0.7 2 3 0 1.7 -0.3 3 -0.7 3 -0.5 -0.1 -4.3 -1.9 -8.5 -4.1z"/>
  <path d="M339 288 c-1.9 -0.4 -7.1 -2.4 -11.5 -4.6 -6.9 -3.3 -8.9 -3.9 -14.3 -3.8 -3.5 0.1 -6.7 0.5 -7 1.1 -2.3 3.4 -17.1 4.3 -27.8 1.7 -6.5 -1.7 -6.5 -1.7 -14.9 1.1 -10.1 3.2 -20.3 3.2 -27 0 -4.5 -2.3 -14.6 -2.6 -18.2 -0.7 -1.2 0.7 -5.8 1.2 -10.3 1.2 -6.8 0 -8.6 -0.4 -11.3 -2.2 -4.1 -3 -4.7 -3.7 -4.7 -7 0 -1.8 -0.5 -2.8 -1.5 -2.8 -3.6 0 -3.9 -4.2 -4.3 -58.5 -0.4 -57.1 0.1 -66.5 3.9 -66.5 1 0 1.9 -0.7 1.9 -1.5 0 -1 1.1 -1.5 3.5 -1.5 l3.5 0 0 64.5 0 64.5 9.5 0 9.5 0 0 -10.5 c0 -8.3 0.3 -10.5 1.4 -10.5 0.7 0 1.6 1 2 2.2 0.4 1.8 0.8 2 1.8 1 1.7 -1.7 4.7 -1.5 5.4 0.3 0.5 1.2 1 1.3 2 0.4 0.9 -0.7 1.4 -0.7 1.4 -0.1 0 0.5 0.8 1.2 1.9 1.5 1.4 0.3 1.7 0 1.4 -1.4 -0.4 -1.3 0 -1.9 1 -1.9 2.2 0 2.5 0.7 3.7 8.6 1.8 11.2 0.8 10.4 11.9 10.4 l9.8 0 1.9 -13 c1.6 -11.2 2.1 -13 3.6 -13 1.8 0 2.4 2.8 2.1 10 l-0.1 2.5 1.1 -2.3 c0.7 -1.5 1.8 -2.2 3.1 -2 3.9 0.5 4.6 -0.9 4.6 -8.8 0 -5.9 0.3 -7.4 1.5 -7.4 0.8 0 1.5 -0.7 1.5 -1.5 0 -0.8 0.7 -1.5 1.5 -1.5 1.3 0 1.5 2.7 1.5 18.5 l0 18.5 9.8 0 9.9 0 0.5 -12.2 c0.3 -6.8 0.4 -37.4 0.3 -68 l-0.2 -55.8 3.4 0 c2.3 0 3.3 0.5 3.3 1.5 0 1.2 1.6 1.5 8 1.5 l8 0 0 3.4 c0 1.9 -0.4 3.6 -0.9 3.8 -0.4 0.2 -1.8 3 -3.1 6.3 -2.4 6.3 -4 23.2 -2.4 24.4 0.5 0.3 2.2 3.3 3.9 6.6 2 4 6.5 9.6 13.7 17.1 6 6.1 10.8 11.9 10.8 12.8 0 0.9 0.8 1.6 2 1.6 1.6 0 2 0.7 2 3.1 0 2.9 -0.2 3 -1.7 1.8 -1 -0.8 -2.4 -2.2 -3.1 -3.1 -0.7 -1 -2 -1.8 -2.8 -1.8 -1.2 0 -1.4 1 -1 5 l0.6 5 -12.5 0 -12.5 0 0 8.3 c0 16.1 3.5 26.6 11.2 33.1 6.1 5.3 18.5 8.1 27.8 6.4 10.8 -1.9 16.8 -7.2 21.7 -18.9 2.4 -5.8 2.7 -7.7 2.7 -19.9 l0.1 -13.5 3.7 -0.3 3.6 -0.3 1.2 5.6 c1.3 6.1 0.8 26 -0.7 33.5 -0.5 2.5 -3 7.9 -5.4 12 -4.3 7.2 -4.7 7.5 -13.7 12.2 l-9.2 4.8 -10.3 -0.1 c-5.6 -0.1 -11.8 -0.5 -13.7 -0.9z m-31.3 -46.7 c-0.2 -3.7 -0.3 -0.9 -0.3 6.2 0 7.2 0.1 10.2 0.3 6.8 0.2 -3.4 0.2 -9.3 0 -13z m10 9.2 c-1.3 -4.2 -3.7 -4.7 -3.7 -0.7 0 3.3 0.7 4.2 3.1 4.2 1.5 0 1.6 -0.4 0.6 -3.5z m-3.7 -5.8 c0 -1.1 0.8 -2.6 1.8 -3.3 1.6 -1.2 1.6 -1.3 -0.4 -1.4 -1.2 0 -2.5 -0.8 -2.9 -1.7 -0.6 -1.7 -0.7 -1.7 -2 0.1 -1.3 1.7 -1.2 2.1 0.7 3.8 1.1 1 1.6 1.8 1 1.8 -0.7 0 -1.2 1.2 -1.2 2.6 0 2.2 0.2 2.5 1.5 1.4 0.8 -0.7 1.5 -2.2 1.5 -3.3z m-6.3 -76.4 c-0.1 -5.4 -0.3 -1 -0.3 9.7 0 10.7 0.2 15.1 0.3 9.8 0.2 -5.4 0.2 -14.2 0 -19.5z m10.3 11.3 c0 -2.5 -1.2 -4.6 -2.6 -4.6 -1.5 0 -1.8 1.8 -0.8 4.4 0.8 2 3.4 2.1 3.4 0.2z"/>
  <path d="M267 240 c0 -4.3 0.3 -5 2 -5 1.5 0 2 0.7 2 2.8 0 4.2 -1.1 7.2 -2.6 7.2 -1 0 -1.4 -1.4 -1.4 -5z"/>
  <path d="M358.7 241.3 c-0.4 -0.3 -0.7 -1.9 -0.7 -3.5 0 -1.8 -0.5 -2.8 -1.5 -2.8 -0.8 0 -1.5 -0.4 -1.5 -1 0 -0.5 0.7 -1 1.5 -1 0.9 0 1.2 -0.6 0.9 -1.5 -0.4 -1 0 -1.5 1.4 -1.5 1.9 0 3.2 3.7 3.2 9.8 0 2.1 -1.9 3 -3.3 1.5z"/>
  <path d="M375 207.5 c0 -1.9 -0.5 -2.5 -2.1 -2.5 -1.2 0 -2.3 -0.8 -2.6 -2 -0.3 -1.1 -1 -2 -1.5 -2 -0.5 0 -6.3 -5.3 -12.9 -11.7 -10.3 -10.3 -11.9 -12.2 -11.9 -15 0 -1.8 0.2 -3.3 0.4 -3.3 0.9 0 6.6 6.2 6.6 7.1 0 0.5 0.4 0.8 0.9 0.6 0.4 -0.1 1.8 0.9 2.9 2.3 l2.1 2.5 0.1 -2.3 c0 -1.3 0.5 -3.2 1 -4.2 0.7 -1.3 0.7 -2.1 0 -2.5 -0.5 -0.3 -1 -1.3 -1 -2.1 0 -1.2 2.7 -1.4 16 -1.4 l16 0 0 3.5 c0 2.6 -0.4 3.5 -1.7 3.6 -2.8 0 -10.4 10.4 -11 15 -0.5 3.2 -0.3 3.9 1.1 3.9 1 0 1.6 0.9 1.6 2.5 0 1.8 0.5 2.5 2 2.5 1.7 0 2 0.7 2 4 l0 4 -4 0 c-3.6 0 -4 -0.2 -4 -2.5z"/>
  <path d="M255 188 c0 -2.2 -0.4 -4 -1 -4 -0.5 0 -1 -0.4 -1 -1 0 -0.5 0.7 -1 1.5 -1 0.9 0 1.5 -0.9 1.5 -2.5 0 -1.4 -0.4 -2.5 -1 -2.5 -1.9 0 -1 -1.8 1.1 -2.3 2.3 -0.6 1.7 -2.7 -0.7 -2.7 -0.8 0 -1.7 1.3 -2.1 3.1 -0.4 1.9 -0.9 2.6 -1.3 1.8 -0.5 -0.6 -1.7 -0.9 -2.9 -0.6 -1.2 0.3 -2.1 0 -2.1 -0.6 0 -0.7 -0.4 -0.6 -0.9 0.2 -0.6 0.9 -0.6 2.2 0 3.2 0.5 1 0.9 3.8 0.9 6.3 0 3.7 -0.3 4.6 -1.8 4.6 -1.5 0 -2.1 -3.1 -5 -24.7 -1.8 -13.7 -3.3 -25.6 -3.2 -26.5 0 -2.6 7 -2.6 7 0 0 1.1 1.3 2.3 3.5 3.1 3 1 3.8 1 5.7 -0.3 3 -2.1 10.7 -2.1 11.5 0 0.3 0.8 -0.6 9.9 -2.1 20.2 -1.4 10.3 -2.9 21.3 -3.2 24.5 -0.6 4.7 -1 5.7 -2.5 5.7 -1.5 0 -1.9 -0.8 -1.9 -4z"/>
  <path d="M185.1 125.3 c0.8 -1 3.1 -3.6 5.1 -5.8 l3.8 -4 0 3.8 c0 3 -0.4 3.7 -2 3.7 -1.3 0 -2 0.7 -2 2 0 1.6 -0.7 2 -3.1 2 -2.8 0 -3 -0.2 -1.8 -1.7z"/>
  <path d="M200.9 108.6 c4.3 -4.4 5.3 -4.5 4.9 -0.3 -0.3 3 -0.6 3.2 -4.3 3.5 l-4 0.3 3.4 -3.5z"/>
 </g>
 <g fill="#0047a6">
  <path d="M275.8 341.2 c-2.7 -0.2 -4.8 -0.6 -4.8 -1.1 0 -0.4 -1.6 -0.5 -3.5 -0.3 -1.9 0.2 -3.5 0 -3.5 -0.5 0 -0.5 -1.3 -0.8 -2.9 -0.5 -1.7 0.2 -3.4 -0.2 -4.2 -1.1 -0.7 -0.7 -2.1 -1.2 -3.1 -0.9 -1 0.2 -1.8 -0.1 -1.8 -0.7 0 -0.5 -0.7 -0.8 -1.5 -0.5 -0.8 0.4 -1.5 0.1 -1.5 -0.5 0 -0.6 -0.7 -0.8 -1.5 -0.5 -0.8 0.4 -1.5 0.2 -1.5 -0.2 0 -0.5 -1.4 -1 -3.2 -1 -1.7 -0.1 -3.6 -0.8 -4.2 -1.6 -0.6 -0.8 -1.7 -1.3 -2.3 -1.1 -0.7 0.3 -1.6 -0.2 -1.9 -1.1 -0.3 -0.8 -1.2 -1.2 -2 -0.9 -0.7 0.3 -1.6 -0.1 -1.9 -0.9 -0.3 -0.8 -1.5 -1.4 -2.6 -1.5 -3.2 -0.3 -20.6 -12.4 -29.2 -20.3 -8 -7.4 -18.1 -19.7 -23.3 -28.5 -8.7 -14.3 -16.1 -35.6 -17.9 -50.8 -1 -8.5 -0.7 -31.1 0.4 -39.2 2.8 -19.5 12.3 -41.8 25 -59 6.9 -9.3 22.8 -24.5 32.1 -30.7 15.8 -10.5 30 -16.3 49.4 -20.2 45.9 -9.3 94.1 7.1 125.4 42.7 17.5 19.9 28.5 43.9 32.3 70.6 1.5 10.6 0.6 34.9 -1.6 45.1 -6.5 29.2 -19.7 51.5 -43.1 72.9 -11.6 10.6 -33.8 23.6 -38.3 22.4 -1.5 -0.4 -2.1 -0.1 -2.1 1.1 0 1.6 -1.6 2.1 -5.4 1.7 -1 0 -2.4 0.6 -3.1 1.6 -0.8 1.1 -2.7 1.6 -5.9 1.6 -2.5 0 -4.6 0.4 -4.6 0.9 0 0.5 -1.1 0.6 -2.5 0.2 -1.6 -0.4 -2.5 -0.2 -2.5 0.5 0 0.8 -1.1 1 -3.5 0.5 -2.5 -0.4 -3.5 -0.3 -3.5 0.6 0 1 -1.5 1.1 -6 0.7 -3.7 -0.4 -6 -0.3 -6 0.3 0 0.6 -2.5 1 -5.5 1 -3.4 0 -5.5 -0.4 -5.5 -1.1 0 -0.7 -0.5 -0.8 -1.2 -0.3 -0.7 0.5 -3.4 0.8 -6 0.6z m93.4 -60 c9 -4.7 9.4 -5 13.7 -12.2 4.9 -8.3 6 -12.4 6.8 -25.1 0.5 -8.2 -1.1 -20.8 -2.5 -19.5 -0.3 0.4 -0.5 3 -0.5 5.9 0.1 2.8 -0.1 4.2 -0.4 3 -0.2 -1.3 -1.1 -2.3 -1.9 -2.3 -0.8 0 -1.4 -1 -1.4 -2.3 0 -6.3 -6 -18.5 -11.9 -24.4 -1.9 -1.9 -3.1 -4.2 -3.1 -5.7 0 -2.7 1.4 -3.4 2.6 -1.5 0.5 0.8 1 0.6 1.6 -0.5 0.5 -0.9 0.6 -2.1 0.3 -2.6 -1.9 -3 7.6 -18.3 12 -19.3 1.1 -0.3 0.2 -0.5 -2 -0.5 -6.5 0.1 -7.5 -0.1 -7.5 -1.7 0 -1.1 1.1 -1.5 4.1 -1.5 4.6 0 4.3 1.3 1.9 -11.1 -1.6 -8.4 -6.4 -15.7 -12.8 -19.5 -13.1 -7.9 -29 -6.2 -39.6 4.1 -4 3.9 -7.7 4.8 -6.9 1.6 0.5 -2 -2.8 -3.1 -9.8 -3.1 -2.7 0 -3.9 -0.5 -4.2 -1.8 -0.3 -0.9 -0.5 -0.2 -0.6 1.6 -0.2 6.2 -3.1 2.5 -3.1 -4 l0 -2.8 -18.9 0 -18.9 0 -0.7 5.5 c-0.5 4.6 -1 5.5 -2.7 5.5 -1.4 0 -1.8 -0.5 -1.4 -1.5 0.9 -2.3 -2 -3 -4.9 -1.1 -2.8 1.8 -8.7 2.1 -11.7 0.5 -2.5 -1.4 -2.8 -1 -3 3.5 -0.1 2.7 -0.6 3.6 -1.8 3.6 -1.4 0 -1.9 -1.3 -2.5 -6.7 -0.4 -3.8 -1.2 -7.4 -1.7 -8 -0.8 -1 -5.8 -1.3 -18.9 -1.3 l-17.9 0 0 10.5 c0 8.5 -0.3 10.5 -1.5 10.5 -0.8 0 -1.7 -1.4 -2.1 -3.5 -0.4 -2.5 -1.2 -3.5 -2.4 -3.5 -3.6 0 -4.2 10 -3.8 63.5 0.4 52.7 0.6 55.5 4.8 55.5 1.2 0 1.8 -0.5 1.5 -1 -1 -1.7 0.5 -7 2.1 -7 1 0 1.4 1.5 1.4 6 l0 6 4 0 c2.8 0 4 0.4 4 1.4 0 1.8 -4.4 2.9 -8.4 2 l-3.1 -0.6 3.9 2.7 c3.4 2.3 4.7 2.6 9.5 2.2 3.1 -0.2 7.6 -1 10.1 -1.7 5.7 -1.5 16.4 -0.7 20.9 1.6 5.7 2.8 11.7 2.9 20.1 0.1 8 -2.6 16.3 -3.9 17.7 -2.7 1.3 1.2 9.8 3 13.9 3 4.8 0 11.5 -2.1 11.1 -3.4 -0.2 -0.7 -4.4 -1 -11 -1 -9.7 0 -10.7 -0.1 -10.7 -1.8 0 -1.6 1.1 -1.8 13 -1.8 11.7 0 13 0.2 13 1.8 0 1.5 1 1.7 7.8 1.7 6.9 0 8.5 0.4 15.7 3.9 9.3 4.6 12.4 5.3 22.2 5.5 6.8 0.1 7.8 -0.2 16.5 -4.7z"/>
  <path d="M211.7 276.2 c-0.9 -0.2 -1.7 -1 -1.7 -1.8 0 -1 1.2 -1.4 4 -1.4 2.2 0 4 -0.4 4 -1 0 -0.5 0.6 -1 1.4 -1 1.5 0 2.7 3.2 1.7 4.8 -0.6 0.9 -5.5 1.1 -9.4 0.4z"/>
  <path d="M239 275 c-1 -1.8 -0.8 -2 3 -2 4.4 0 5.7 2.3 1.8 3.4 -3.4 0.9 -3.6 0.8 -4.8 -1.4z"/>
  <path d="M254.8 276.2 c-3 -0.6 -2.1 -3.2 1.1 -3.2 1.6 0 4.3 -0.3 6 -0.6 2.8 -0.6 3.1 -0.4 3.1 1.8 0 2.3 -0.4 2.5 -4.2 2.5 -2.4 -0.1 -5.1 -0.3 -6 -0.5z"/>
  <path d="M382 253.3 c0 -1.6 0.3 -5.2 0.6 -8 0.6 -4.4 1 -5.3 2.7 -5.3 1.8 0 1.9 0.4 1.3 6.2 -0.8 6.5 -2 9.8 -3.6 9.8 -0.6 0 -1 -1.2 -1 -2.7z"/>
  <path d="M316.5 226.8 c-0.4 -1.8 -0.9 -4.1 -1.2 -5.1 -0.4 -1.7 -0.3 -1.7 1.9 -0.6 2.5 1.4 3 1.6 5.3 1.8 2.3 0.2 1.8 3.1 -0.5 3.1 -1.3 0 -2 0.7 -2 2 0 3.3 -2.8 2.3 -3.5 -1.2z"/>
 </g>
 <g fill="#ffde59">
  <path d="M346.5 277.4 c-6.6 -1 -14.2 -3.7 -17.4 -6.1 -8.3 -6.3 -12.1 -17.9 -12.1 -36.7 l0 -11.6 14 0 14 0 0 11 c0 14.1 1.2 17 7 17 5.1 0 6.3 -2.3 6.3 -11.1 -0.1 -10.7 -2.3 -14.2 -19.1 -31.3 -12.1 -12.3 -15.5 -16.4 -18.3 -22.1 -3.3 -6.7 -3.4 -7.3 -3.3 -18.5 0 -9.4 0.4 -12.5 2.2 -17.1 5.7 -14.3 21.3 -21.4 39.6 -17.9 16.7 3.1 24.2 13.1 26.3 34.8 l0.6 6.2 -14.7 0 -14.6 0 0 -4.7 c0 -6.8 -0.8 -8.9 -3.7 -10.2 -4 -1.8 -8.1 0.2 -8.8 4.3 -1.2 6.1 1.7 10.4 17.2 25.7 16.1 16 19.5 20.3 22.4 28.7 4.4 12.5 3 33.7 -2.8 45.1 -3.1 6.1 -9.3 11.4 -15.1 13.1 -4.4 1.2 -15.5 2 -19.7 1.4z"/>
  <path d="M196 204.5 l0 -71.5 20.9 0 c15.5 0 21.1 0.3 21.8 1.2 0.5 0.7 3.3 19.1 6.2 40.8 2.9 21.7 5.5 40.3 5.9 41.3 0.4 1 2.9 -14 5.5 -33.5 2.7 -19.4 5.4 -38.6 6 -42.5 l1.1 -7.3 21.8 0 21.8 0 0 71.5 0 71.5 -13 0 -13 0 0 -47.7 c0 -26.2 -0.4 -47.3 -0.8 -46.7 -0.8 0.8 -6 32.2 -13.3 79.4 -1 6.9 -2.1 13.1 -2.4 13.8 -0.3 0.9 -3.8 1.2 -12.9 1.2 -11 0 -12.5 -0.2 -13 -1.7 -0.3 -1 -3.7 -20.7 -7.5 -43.8 -8.2 -49 -8.7 -51.4 -9.5 -52.2 -0.3 -0.4 -0.6 21.5 -0.6 48.5 l0 49.2 -12.5 0 -12.5 0 0 -71.5z"/>
 </g>
</svg>