<svg xmlns="http://www.w3.org/2000/svg" width="1047" height="1034" viewBox="0 0 1047 1034" version="1.1"><path d="M 492.569 22.996 C 350.060 32.385, 224.782 96.426, 134.191 206.194 C 80.876 270.795, 43.050 353.804, 29.076 436.873 C 23.449 470.318, 22.553 482.015, 22.553 522 C 22.553 561.985, 23.449 573.682, 29.076 607.127 C 55.174 762.264, 156.512 898.466, 298.500 969.244 C 421.229 1030.422, 565.276 1038.468, 693.381 991.301 C 796.308 953.403, 883.069 883.689, 942.660 791 C 1005.028 693.991, 1031.603 576.494, 1017.409 460.500 C 997.138 294.834, 894.386 149.595, 744.500 74.744 C 689.322 47.189, 630.794 30.479, 568.500 24.496 C 548.897 22.614, 510.028 21.846, 492.569 22.996 M 663.500 372.583 C 661.850 372.812, 656.225 373.494, 651 374.098 C 639.478 375.431, 620.117 380.184, 610.242 384.104 C 562.268 403.149, 535.694 438.486, 528.455 492.864 C 526.553 507.150, 526.592 538.746, 528.529 553.699 C 536.110 612.205, 563.730 648.516, 612.389 663.946 C 640.686 672.918, 682.050 674.530, 712.886 667.862 C 732.937 663.526, 753.401 654.662, 766.892 644.470 C 770.958 641.398, 774.609 639.248, 775.005 639.692 C 775.401 640.137, 777.601 646.462, 779.893 653.750 L 784.061 667 808.031 667 L 832 667 832 585.994 L 832 504.988 754.750 505.244 L 677.500 505.500 677.235 534.750 L 676.970 564 709.985 564 L 743 564 743 566.962 C 743 576.091, 734.817 587.539, 723.810 593.809 C 703.756 605.233, 669.388 604.978, 649.110 593.255 C 637.928 586.791, 628.394 573.265, 624.260 558 C 621.632 548.293, 621.655 495.564, 624.292 486 C 632.528 456.134, 652.710 442.075, 687.500 441.970 C 717.741 441.878, 740.207 456.067, 742.664 476.811 L 743.279 482 787.790 482 L 832.302 482 831.684 472.750 C 830.090 448.872, 821.312 430.006, 803.622 412.444 C 783.615 392.582, 756.398 380.143, 720.441 374.428 C 710.995 372.927, 670.486 371.614, 663.500 372.583 M 211 522 L 211 667 280.250 666.999 C 318.853 666.999, 354.368 666.552, 360.500 665.990 C 427.699 659.830, 467.853 629.440, 482.502 573.656 C 486.779 557.367, 488.246 544.179, 488.246 522 C 488.246 494.803, 485.489 476.622, 478.354 456.752 C 468.458 429.193, 448.576 406.768, 422.447 393.694 C 407.941 386.436, 382.856 380.052, 361 378.057 C 354.296 377.445, 320.619 377.005, 280.250 377.003 L 211 377 211 522 M 304 522 L 304 597 325.340 597 C 343.166 597, 347.926 596.681, 354.244 595.065 C 370.034 591.027, 380.474 582.819, 386.440 569.750 C 392.139 557.267, 392.500 554.424, 392.500 522 C 392.500 489.576, 392.139 486.733, 386.440 474.250 C 380.474 461.181, 370.034 452.973, 354.244 448.935 C 347.926 447.319, 343.166 447, 325.340 447 L 304 447 304 522" stroke="none" fill="#ec3c3c" fill-rule="evenodd"/><path d="M 0 517.001 L 0 1034.002 523.750 1033.751 L 1047.500 1033.500 1047.751 516.750 L 1048.002 0 524.001 0 L 0 0 0 517.001 M 0.496 517.500 C 0.496 801.850, 0.610 918.026, 0.750 775.668 C 0.890 633.311, 0.890 400.661, 0.750 258.668 C 0.610 116.676, 0.496 233.150, 0.496 517.500 M 492.569 22.996 C 350.060 32.385, 224.782 96.426, 134.191 206.194 C 80.876 270.795, 43.050 353.804, 29.076 436.873 C 23.449 470.318, 22.553 482.015, 22.553 522 C 22.553 561.985, 23.449 573.682, 29.076 607.127 C 55.174 762.264, 156.512 898.466, 298.500 969.244 C 421.229 1030.422, 565.276 1038.468, 693.381 991.301 C 796.308 953.403, 883.069 883.689, 942.660 791 C 1005.028 693.991, 1031.603 576.494, 1017.409 460.500 C 997.138 294.834, 894.386 149.595, 744.500 74.744 C 689.322 47.189, 630.794 30.479, 568.500 24.496 C 548.897 22.614, 510.028 21.846, 492.569 22.996 M 663.500 372.583 C 661.850 372.812, 656.225 373.494, 651 374.098 C 639.478 375.431, 620.117 380.184, 610.242 384.104 C 562.268 403.149, 535.694 438.486, 528.455 492.864 C 526.553 507.150, 526.592 538.746, 528.529 553.699 C 536.110 612.205, 563.730 648.516, 612.389 663.946 C 640.686 672.918, 682.050 674.530, 712.886 667.862 C 732.937 663.526, 753.401 654.662, 766.892 644.470 C 770.958 641.398, 774.609 639.248, 775.005 639.692 C 775.401 640.137, 777.601 646.462, 779.893 653.750 L 784.061 667 808.031 667 L 832 667 832 585.994 L 832 504.988 754.750 505.244 L 677.500 505.500 677.235 534.750 L 676.970 564 709.985 564 L 743 564 743 566.962 C 743 576.091, 734.817 587.539, 723.810 593.809 C 703.756 605.233, 669.388 604.978, 649.110 593.255 C 637.928 586.791, 628.394 573.265, 624.260 558 C 621.632 548.293, 621.655 495.564, 624.292 486 C 632.528 456.134, 652.710 442.075, 687.500 441.970 C 717.741 441.878, 740.207 456.067, 742.664 476.811 L 743.279 482 787.790 482 L 832.302 482 831.684 472.750 C 830.090 448.872, 821.312 430.006, 803.622 412.444 C 783.615 392.582, 756.398 380.143, 720.441 374.428 C 710.995 372.927, 670.486 371.614, 663.500 372.583 M 211 522 L 211 667 280.250 666.999 C 318.853 666.999, 354.368 666.552, 360.500 665.990 C 427.699 659.830, 467.853 629.440, 482.502 573.656 C 486.779 557.367, 488.246 544.179, 488.246 522 C 488.246 494.803, 485.489 476.622, 478.354 456.752 C 468.458 429.193, 448.576 406.768, 422.447 393.694 C 407.941 386.436, 382.856 380.052, 361 378.057 C 354.296 377.445, 320.619 377.005, 280.250 377.003 L 211 377 211 522 M 304 522 L 304 597 325.340 597 C 343.166 597, 347.926 596.681, 354.244 595.065 C 370.034 591.027, 380.474 582.819, 386.440 569.750 C 392.139 557.267, 392.500 554.424, 392.500 522 C 392.500 489.576, 392.139 486.733, 386.440 474.250 C 380.474 461.181, 370.034 452.973, 354.244 448.935 C 347.926 447.319, 343.166 447, 325.340 447 L 304 447 304 522" stroke="none" fill="#fbfbfb" fill-rule="evenodd"/></svg>